# xmcd
#
# Track frame offsets: 
#        150
#        19840
#        44375
#        63820
#        100592
#        121082
#        140345
#        161407
#        185837
#        208862
#        231980
#        252692
#
# Disc length: 3753 seconds
#
# Revision: 0
# Processed by: cddbd v1.4PL0 Copyright (c) Steve Scherf et al.
# Submitted via: ExactAudioCopy v0.90b4
#
DISCID=a70ea70c
DTITLE=The Stockwell Brothers - Leave My Dreams Alone
DYEAR=1998
DGENRE=Blues
TTITLE0=Leave My Dreams Alone
TTITLE1=She's Dangerous When She's Bored
TTITLE2=Love's Knockin'
TTITLE3=Love To Spare
TTITLE4=Beneath The Paint
TTITLE5=One Way Ticket
TTITLE6=The Fashion And The Feeling
TTITLE7=Nova
TTITLE8=A Shift In The Wind
TTITLE9=Skye
TTITLE10=P.O.W.
TTITLE11=All Around The World
EXTD=(c) 1998 Stobro Music \nP.O. Box 64\nPutney, VT 05346\nwww.sover.
EXTD=net/~stobro\n
EXTT0=
EXTT1=
EXTT2=
EXTT3=
EXTT4=
EXTT5=
EXTT6=
EXTT7=
EXTT8=
EXTT9=
EXTT10=
EXTT11=
PLAYORDER=
